<svg id="SvgjsSvg1001" width="288" height="288" xmlns="http://www.w3.org/2000/svg" version="1.1" xmlns:xlink="http://www.w3.org/1999/xlink" xmlns:svgjs="http://svgjs.com/svgjs"><defs id="SvgjsDefs1002"></defs><g id="SvgjsG1008" transform="matrix(1,0,0,1,0,0)"><svg xmlns="http://www.w3.org/2000/svg" width="288" height="288" enable-background="new 0 0 37.211 37.211" viewBox="0 0 37.211 37.211"><path d="M36.271,35.211c0,1.104-0.896,2-2,2H2.939c-1.104,0-2-0.896-2-2V3.877c0-1.104,0.896-2,2-2s2,0.896,2,2v29.333h4.788
		c-0.074-0.209-0.122-0.432-0.122-0.668V13.211c0-1.104,0.896-2,2-2s2,0.896,2,2v19.333c0,0.234-0.048,0.457-0.122,0.666h3.912
		c-0.074-0.209-0.123-0.432-0.123-0.666V19.877c0-1.104,0.896-2,2-2c1.104,0,2,0.896,2,2v12.666c0,0.235-0.048,0.459-0.123,0.668
		h3.912c-0.074-0.209-0.122-0.433-0.122-0.668v-6.332c0-1.104,0.896-2,2-2s2,0.896,2,2v6.332c0,0.235-0.048,0.459-0.122,0.668h5.454
		C35.377,33.211,36.271,34.107,36.271,35.211z M29.819,18.666h-4.047c-0.828,0-1.5,0.67-1.5,1.5s0.672,1.5,1.5,1.5h8
		c0.828,0,1.5-0.67,1.5-1.5v-8c0-0.829-0.672-1.5-1.5-1.5s-1.5,0.671-1.5,1.5v4.712L15.833,0.439c-0.586-0.586-1.534-0.586-2.12,0
		c-0.587,0.585-0.587,1.536,0,2.121L29.819,18.666z" fill="#b14068" class="color000 svgShape"></path></svg></g></svg>